<?xml version="1.0" encoding="UTF-8" standalone="no"?>
<!-- Created with Inkscape (http://www.inkscape.org/) -->

<svg
   width="1280"
   height="720"
   viewBox="0 0 1280 720"
   version="1.1"
   id="svg5"
   inkscape:version="1.1.2 (0a00cf5339, 2022-02-04, custom)"
   sodipodi:docname="logo.svg"
   xmlns:inkscape="http://www.inkscape.org/namespaces/inkscape"
   xmlns:sodipodi="http://sodipodi.sourceforge.net/DTD/sodipodi-0.dtd"
   xmlns="http://www.w3.org/2000/svg"
   xmlns:svg="http://www.w3.org/2000/svg">
  <sodipodi:namedview
     id="namedview7"
     pagecolor="#ffffff"
     bordercolor="#666666"
     borderopacity="1.0"
     inkscape:pageshadow="2"
     inkscape:pageopacity="0.0"
     inkscape:pagecheckerboard="0"
     inkscape:document-units="px"
     showgrid="false"
     borderlayer="true"
     inkscape:showpageshadow="false"
     inkscape:zoom="0.36805556"
     inkscape:cx="911.54717"
     inkscape:cy="301.58491"
     inkscape:window-width="1280"
     inkscape:window-height="772"
     inkscape:window-x="0"
     inkscape:window-y="0"
     inkscape:window-maximized="1"
     inkscape:current-layer="layer1" />
  <defs
     id="defs2" />
  <g
     inkscape:label="Layer 1"
     inkscape:groupmode="layer"
     id="layer1">
    <g
       id="g6982"
       transform="matrix(1.721372,0,0,1.721372,-423.58596,-266.80698)">
      <path
         d="m 452.55509,434.32988 c -0.93575,2.18341 -4.99067,9.04559 -12.7886,16.84351 -13.72435,13.72435 -38.98962,30.56787 -80.16267,30.56787 -69.55748,0 -110.10669,-53.02589 -110.10669,-118.52846 0,-65.50257 40.54921,-118.84037 110.10669,-118.84037 66.12641,0 90.76785,43.35646 93.26319,47.7233 l -7.48601,7.79792 c -71.42899,-86.08909 -156.58233,-28.07253 -156.58233,63.31915 0,76.41966 69.8694,136.61964 135.68389,83.90567 v -78.915 h 28.07253 z"
         id="path847"
         style="font-size:311.917px;line-height:1.25;font-family:Luxia;-inkscape-font-specification:'Luxia, Normal';fill:#000000;stroke-width:7.79792" />
      <path
         d="m 509.01217,361.96513 v -40.54921 h -31.19169 v 155.9585 h 31.19169 v -93.5751 c 8.10985,-47.09946 32.75129,-43.66838 55.52123,-43.66838 v -18.71502 c -27.4487,0 -46.47563,7.17409 -55.52123,40.54921 z"
         id="path849"
         style="font-size:311.917px;line-height:1.25;font-family:Luxia;-inkscape-font-specification:'Luxia, Normal';fill:#000000;stroke-width:7.79792" />
      <path
         d="m 707.82765,412.54697 3.06774,-11.44896 c 4.44016,-16.57088 8.89346,-60.90937 -46.54366,-75.7637 -46.39846,-12.43243 -82.47548,13.7449 -94.26207,57.73305 -11.78659,43.98814 6.28763,84.99819 52.68609,97.43062 43.38557,11.62512 67.28125,-10.06611 70.13847,-13.49848 l -3.83023,-6.19303 c -61.6939,42.24065 -100.7069,-13.42169 -85.85257,-68.85881 l 1.85679,-6.92964 z m -46.00018,-76.58683 c 19.88505,5.32818 21.11027,22.44834 12.91328,55.45026 l -65.68094,-17.59915 c 14.08874,-36.91288 33.78647,-42.93711 52.76766,-37.85111 z"
         id="path851"
         style="font-size:311.917px;line-height:1.25;font-family:Luxia;-inkscape-font-specification:'Luxia, Normal';fill:#fe5d26;fill-opacity:1;stroke-width:7.79792" />
      <path
         d="m 733.7801,412.54697 -3.06774,-11.44896 c -4.44016,-16.57088 -8.89346,-60.90937 46.54366,-75.7637 46.39846,-12.43243 82.47548,13.7449 94.26207,57.73305 11.78659,43.98814 -6.28763,84.99819 -52.68609,97.43062 -43.38557,11.62512 -67.28125,-10.06611 -70.13847,-13.49848 l 3.83023,-6.19303 c 61.6939,42.24065 100.7069,-13.42169 85.85257,-68.85881 l -1.85679,-6.92964 z m 46.00018,-76.58683 c -19.88505,5.32818 -21.11027,22.44834 -12.91328,55.45026 l 65.68094,-17.59915 C 818.4592,336.89837 798.76147,330.87414 779.78028,335.96014 Z"
         id="path853"
         style="font-size:311.917px;line-height:1.25;font-family:Luxia;-inkscape-font-specification:'Luxia, Normal';fill:#fe5d26;fill-opacity:1;stroke-width:7.79792" />
      <path
         d="m 979.69476,455.54023 c -7.79793,14.03627 -21.21036,16.84352 -27.76062,14.97202 -10.91709,-2.80726 -8.73367,-15.59585 -8.73367,-24.64145 V 332.95685 h 33.37512 v -11.85284 h -33.37512 v -39.30154 h -31.1917 v 39.30154 h -25.5772 v 11.85284 h 25.5772 v 119.15229 c 0,14.6601 1.24767,29.63212 29.94403,29.63212 25.57719,0 36.8062,-12.47668 44.29221,-22.14611 z"
         id="path855"
         style="font-size:311.917px;line-height:1.25;font-family:Luxia;-inkscape-font-specification:'Luxia, Normal';fill:#000000;stroke-width:7.79792" />
    </g>
  </g>
</svg>
